<?xml version="1.0" standalone="no"?>
<!DOCTYPE svg PUBLIC "-//W3C//DTD SVG 20010904//EN"
 "http://www.w3.org/TR/2001/REC-SVG-20010904/DTD/svg10.dtd">
<svg version="1.0" xmlns="http://www.w3.org/2000/svg"
 width="512.000000pt" height="512.000000pt" viewBox="0 0 512.000000 512.000000"
 preserveAspectRatio="xMidYMid meet">
<metadata>
Created by potrace 1.11, written by Peter Selinger 2001-2013
</metadata>
<g transform="translate(0.000000,512.000000) scale(0.100000,-0.100000)"
fill="#000000" stroke="none">
<path d="M3879 5116 c-2 -2 -24 -6 -49 -9 -150 -19 -317 -85 -470 -186 -71
-47 -107 -81 -875 -851 -357 -359 -655 -657 -662 -664 -6 -6 -338 -337 -738
-736 -762 -761 -830 -830 -858 -870 -92 -133 -142 -232 -177 -350 -13 -41 -24
-84 -26 -95 -17 -107 -22 -153 -22 -230 0 -289 100 -549 291 -760 61 -67 182
-167 245 -203 91 -51 141 -74 219 -100 85 -29 106 -34 203 -50 58 -9 273 -9
325 1 22 4 56 9 75 13 99 16 255 81 365 152 117 74 54 14 1017 979 351 351
957 958 1349 1348 391 391 732 735 758 765 117 133 222 345 246 495 3 22 10
63 15 90 9 54 6 281 -4 330 -20 93 -51 197 -77 258 -31 73 -97 190 -111 195
-4 2 -8 10 -8 17 0 26 -203 222 -285 275 -197 128 -364 179 -606 186 -75 2
-138 2 -140 0z m286 -498 c175 -48 329 -173 404 -330 54 -112 70 -188 66 -313
-4 -113 -21 -179 -73 -280 -32 -62 -82 -117 -467 -503 l-431 -434 -22 89 c-73
294 -301 574 -587 716 -71 36 -218 86 -261 89 -13 1 -24 7 -24 12 0 18 814
827 870 865 152 102 351 136 525 89z m-1455 -1438 c220 -56 382 -208 455 -424
98 -292 -44 -633 -318 -765 -108 -53 -196 -72 -312 -66 -131 6 -214 32 -321
100 -270 173 -366 529 -222 820 16 33 36 67 44 76 8 8 14 20 14 25 0 20 139
141 200 174 139 74 315 97 460 60z m-1231 -908 c74 -298 300 -571 590 -717 73
-37 165 -72 211 -80 92 -17 122 22 -347 -446 -455 -453 -476 -471 -618 -518
-90 -30 -241 -37 -335 -15 -225 52 -409 226 -476 449 -27 88 -25 278 3 360 29
83 43 113 76 165 24 37 867 894 873 887 1 -1 11 -39 23 -85z"/>
</g>
</svg>
